<svg xmlns="http://www.w3.org/2000/svg" width="1024" height="1024" viewBox="0 0 1024 1024">
<circle cx="250.30" cy="330.28" r="24.01" fill="#1E3A8A" />
<circle cx="250.41" cy="692.77" r="23.89" fill="#1E3A8A" />
<circle cx="250.41" cy="511.63" r="23.87" fill="#1E3A8A" />
<circle cx="250.50" cy="601.93" r="23.86" fill="#1E3A8A" />
<circle cx="250.50" cy="421.34" r="24.00" fill="#1E3A8A" />
<circle cx="296.14" cy="466.68" r="23.43" fill="#1E3A8A" />
<circle cx="296.14" cy="556.85" r="23.64" fill="#1E3A8A" />
<circle cx="296.42" cy="647.01" r="23.64" fill="#1E3A8A" />
<circle cx="296.54" cy="376.23" r="23.53" fill="#1E3A8A" />
<circle cx="341.96" cy="511.79" r="23.30" fill="#1E3A8A" />
<circle cx="342.01" cy="600.09" r="23.10" fill="#1E3A8A" />
<circle cx="342.22" cy="423.10" r="23.24" fill="#1E3A8A" />
<circle cx="345.24" cy="681.44" r="16.16" fill="#1E3A8A" />
<circle cx="345.71" cy="342.00" r="16.09" fill="#1E3A8A" />
<circle cx="388.29" cy="555.15" r="22.56" fill="#1E3A8A" />
<circle cx="388.40" cy="468.97" r="21.99" fill="#1E3A8A" />
<circle cx="390.39" cy="636.38" r="17.18" fill="#1E3A8A" />
<circle cx="390.46" cy="387.39" r="17.40" fill="#1E3A8A" />
<circle cx="434.23" cy="357.51" r="12.10" fill="#1E3A8A" />
<circle cx="434.50" cy="665.50" r="12.75" fill="#1E3A8A" />
<circle cx="435.50" cy="511.54" r="17.88" fill="#1E3A8A" />
<circle cx="436.00" cy="431.86" r="17.12" fill="#1E3A8A" />
<circle cx="436.15" cy="590.43" r="17.04" fill="#1E3A8A" />
<circle cx="483.85" cy="399.21" r="12.57" fill="#1E3A8A" />
<circle cx="483.89" cy="549.71" r="16.58" fill="#1E3A8A" />
<circle cx="484.27" cy="472.86" r="16.38" fill="#1E3A8A" />
<circle cx="484.59" cy="623.92" r="13.08" fill="#1E3A8A" />
<circle cx="535.20" cy="439.50" r="12.95" fill="#1E3A8A" />
<circle cx="535.23" cy="583.91" r="13.24" fill="#1E3A8A" />
<circle cx="535.31" cy="511.64" r="15.37" fill="#1E3A8A" />
<circle cx="586.27" cy="476.76" r="12.45" fill="#1E3A8A" />
<circle cx="586.30" cy="546.22" r="12.90" fill="#1E3A8A" />
<circle cx="638.21" cy="511.54" r="12.31" fill="#1E3A8A" />
<circle cx="688.67" cy="512.02" r="11.10" fill="#1E3A8A" />
<circle cx="759.28" cy="511.64" r="38.53" fill="#1E3A8A" />
</svg>
